<svg height="auto" viewBox="0 0 2000 1400" xmlns="http://www.w3.org/2000/svg"><path d="M0 1400h80V795.146q0-19-19-19H19q-19 0-19 19ZM100 1400h80V680.497q0-19-19-19h-42q-19 0-19 19ZM200 1400h80V693.98q0-19-19-19h-42q-19 0-19 19ZM300 1400h80v-279.351q0-19-19-19h-42q-19 0-19 19ZM400 1400h80v-314.548q0-19-19-19h-42q-19 0-19 19ZM500 1400h80V603.045q0-19-19-19h-42q-19 0-19 19ZM600 1400h80V782.246q0-19-19-19h-42q-19 0-19 19ZM700 1400h80V524.684q0-19-19-19h-42q-19 0-19 19ZM800 1400h80V361.406q0-19-19-19h-42q-19 0-19 19ZM900 1400h80V716.086q0-19-19-19h-42q-19 0-19 19ZM1000 1400h80V821.428q0-19-19-19h-42q-19 0-19 19ZM1100 1400h80V196.246q0-19-19-19h-42q-19 0-19 19ZM1200 1400h80V204.284q0-19-19-19h-42q-19 0-19 19ZM1300 1400h80v-396.33q0-19-19-19h-42q-19 0-19 19ZM1400 1400h80v-294.572q0-19-19-19h-42q-19 0-19 19ZM1500 1400h80V493.297q0-19-19-19h-42q-19 0-19 19ZM1600 1400h80V428.51q0-19-19-19h-42q-19 0-19 19ZM1700 1400h80V316.688q0-19-19-19h-42q-19 0-19 19ZM1800 1400h80V779.993q0-19-19-19h-42q-19 0-19 19ZM1900 1400h80V238.035q0-19-19-19h-42q-19 0-19 19Z" fill="#1F4B2C"/></svg>