<?xml version="1.0" encoding="UTF-8"?>
<svg xmlns="http://www.w3.org/2000/svg" xmlns:xlink="http://www.w3.org/1999/xlink" width="2000px" height="200px" viewBox="0 0 2000 200" version="1.1">
<defs>
<linearGradient id="linear0" gradientUnits="userSpaceOnUse" x1="0" y1="0" x2="1" y2="0" gradientTransform="matrix(0.000000000000124914,181.695312,-2040,0.000000000000011126,0,18.304687)">
<stop offset="0.05" style="stop-color:rgb(72.156863%,88.235294%,81.568627%);stop-opacity:1;"/>
<stop offset="0.95" style="stop-color:rgb(78.823529%,90.980392%,85.882353%);stop-opacity:1;"/>
</linearGradient>
<linearGradient id="linear1" gradientUnits="userSpaceOnUse" x1="0" y1="0" x2="1" y2="0" gradientTransform="matrix(0.000000000000124914,150.601562,-2040,0.000000000000009222,-0,49.398437)">
<stop offset="0.05" style="stop-color:rgb(48.627451%,76.470588%,64.313725%);stop-opacity:1;"/>
<stop offset="0.95" style="stop-color:rgb(61.176471%,82.352941%,72.941176%);stop-opacity:1;"/>
</linearGradient>
<linearGradient id="linear2" gradientUnits="userSpaceOnUse" x1="0" y1="0" x2="1" y2="0" gradientTransform="matrix(0.000000000000124914,124.632813,-2040,0.000000000000007632,-0,75.367188)">
<stop offset="0.05" style="stop-color:rgb(25.098039%,64.705882%,47.058824%);stop-opacity:1;"/>
<stop offset="0.95" style="stop-color:rgb(43.529412%,73.333333%,60%);stop-opacity:1;"/>
</linearGradient>
<linearGradient id="linear3" gradientUnits="userSpaceOnUse" x1="0" y1="0" x2="1" y2="0" gradientTransform="matrix(0.000000000000124914,93.855469,-2040,0.000000000000005747,0,106.144531)">
<stop offset="0.05" style="stop-color:rgb(20.784314%,52.941176%,37.254902%);stop-opacity:1;"/>
<stop offset="0.95" style="stop-color:rgb(40.392157%,64.705882%,52.941176%);stop-opacity:1;"/>
</linearGradient>
<linearGradient id="linear4" gradientUnits="userSpaceOnUse" x1="0" y1="0" x2="1" y2="0" gradientTransform="matrix(0.000000000000124914,65.144531,-2040,0.000000000000003989,-0,134.855469)">
<stop offset="0.05" style="stop-color:rgb(16.470588%,41.176471%,27.058824%);stop-opacity:1;"/>
<stop offset="0.95" style="stop-color:rgb(37.254902%,55.686275%,45.098039%);stop-opacity:1;"/>
</linearGradient>
<linearGradient id="linear5" gradientUnits="userSpaceOnUse" x1="0" y1="0" x2="1" y2="0" gradientTransform="matrix(0.000000000000124914,34.636719,-2040,0.000000000000002121,0,165.363281)">
<stop offset="0.05" style="stop-color:rgb(12.156863%,29.411765%,17.254902%);stop-opacity:1;"/>
<stop offset="0.95" style="stop-color:rgb(34.117647%,47.058824%,37.647059%);stop-opacity:1;"/>
</linearGradient>
</defs>
<g id="surface1">
<rect x="0" y="0" width="2000" height="200" style="fill:rgb(95.686275%,100%,98.823529%);fill-opacity:1;stroke:none;"/>
<path style=" stroke:none;fill-rule:nonzero;fill:url(#linear0);" d="M 0 28.570312 C 54.210938 31.484375 108.425781 34.394531 170 32.855469 C 231.574219 31.320312 300.511719 25.335938 379 21.714844 C 457.488281 18.089844 545.523438 16.828125 612 20 C 678.476562 23.171875 723.390625 30.769531 778 33.570312 C 832.609375 36.371094 896.90625 34.371094 975 33.714844 C 1053.09375 33.058594 1144.976562 33.746094 1213 32.429688 C 1281.023438 31.109375 1325.179688 27.785156 1378 28.570312 C 1430.820312 29.359375 1492.296875 34.253906 1570 32.570312 C 1647.703125 30.886719 1741.628906 22.621094 1816 20.855469 C 1890.371094 19.09375 1945.183594 23.832031 2040 28.570312 L 2000 200 L 0 200 Z M 0 28.570312 "/>
<path style=" stroke:none;fill-rule:nonzero;fill:url(#linear1);" d="M 0 57.144531 C 61.308594 52.28125 122.617188 47.417969 192 50.144531 C 261.382812 52.867188 338.839844 63.179688 405 63.855469 C 471.160156 64.535156 526.019531 55.574219 590 55.714844 C 653.980469 55.851562 727.085938 65.089844 798 64.855469 C 868.914062 64.625 937.636719 54.921875 996 51.570312 C 1054.363281 48.21875 1102.375 51.214844 1178 54.570312 C 1253.625 57.925781 1356.867188 61.636719 1426 61.855469 C 1495.132812 62.074219 1530.148438 58.800781 1589 57.429688 C 1647.851562 56.054688 1730.527344 56.585938 1803 56.855469 C 1875.472656 57.125 1937.734375 57.132812 2040 57.144531 L 2000 200 L 0 200 Z M 0 57.144531 "/>
<path style=" stroke:none;fill-rule:nonzero;fill:url(#linear2);" d="M 0 85.714844 C 69.644531 89.136719 139.289062 92.5625 207 91.285156 C 274.710938 90.011719 340.480469 84.035156 403 80.855469 C 465.519531 77.675781 524.78125 77.292969 594 79.714844 C 663.21875 82.136719 742.386719 87.363281 814 86.285156 C 885.613281 85.207031 949.671875 77.824219 1008 79.144531 C 1066.328125 80.464844 1118.921875 90.488281 1192 91.144531 C 1265.078125 91.796875 1358.640625 83.078125 1429 78.714844 C 1499.359375 74.351562 1546.519531 74.347656 1612 78.144531 C 1677.480469 81.9375 1761.28125 89.535156 1829 91.429688 C 1896.71875 93.324219 1948.359375 89.519531 2040 85.714844 L 2000 200 L 0 200 Z M 0 85.714844 "/>
<path style=" stroke:none;fill-rule:nonzero;fill:url(#linear3);" d="M 0 114.285156 C 57.949219 110.382812 115.902344 106.476562 184 106.855469 C 252.097656 107.238281 330.34375 111.898438 405 114.429688 C 479.65625 116.957031 550.722656 117.355469 606 117.714844 C 661.277344 118.074219 700.769531 118.394531 770 116.429688 C 839.230469 114.460938 938.203125 110.203125 1017 108.570312 C 1095.796875 106.941406 1154.414062 107.933594 1216 112.144531 C 1277.585938 116.351562 1342.136719 123.773438 1410 121.714844 C 1477.863281 119.65625 1549.039062 108.117188 1608 106.144531 C 1666.960938 104.167969 1713.703125 111.761719 1777 114.714844 C 1840.296875 117.664062 1920.148438 115.976562 2040 114.285156 L 2000 200 L 0 200 Z M 0 114.285156 "/>
<path style=" stroke:none;fill-rule:nonzero;fill:url(#linear4);" d="M 0 142.855469 C 55.523438 144.828125 111.046875 146.800781 183 144.714844 C 254.953125 142.628906 343.335938 136.484375 417 134.855469 C 490.664062 133.230469 549.609375 136.125 611 139.144531 C 672.390625 142.160156 736.230469 145.304688 800 145.714844 C 863.769531 146.125 927.464844 143.796875 991 142.144531 C 1054.535156 140.488281 1117.917969 139.507812 1192 139.570312 C 1266.082031 139.636719 1350.867188 140.746094 1420 141.855469 C 1489.132812 142.964844 1542.613281 144.074219 1603 142.855469 C 1663.386719 141.640625 1730.683594 138.101562 1798 137.714844 C 1865.316406 137.328125 1932.660156 140.09375 2040 142.855469 L 2000 200 L 0 200 Z M 0 142.855469 "/>
<path style=" stroke:none;fill-rule:nonzero;fill:url(#linear5);" d="M 0 171.429688 C 72.546875 175.363281 145.097656 179.296875 217 179.429688 C 288.902344 179.558594 360.164062 175.886719 421 175.714844 C 481.835938 175.539062 532.253906 178.863281 596 178.429688 C 659.746094 177.992188 736.824219 173.796875 800 174.429688 C 863.175781 175.0625 912.453125 180.519531 986 179.429688 C 1059.546875 178.335938 1157.363281 170.691406 1222 167.429688 C 1286.636719 164.164062 1318.089844 165.285156 1378 167.144531 C 1437.910156 169 1526.285156 171.597656 1600 173.429688 C 1673.714844 175.257812 1732.777344 176.320312 1797 175.855469 C 1861.222656 175.394531 1930.613281 173.414062 2040 171.429688 L 2000 200 L 0 200 Z M 0 171.429688 "/>
</g>
</svg>
